<svg width="283" height="52" viewBox="0 0 283 52" fill="none" xmlns="http://www.w3.org/2000/svg">
<rect x="4.22119" y="4.66278" width="43.5135" height="15.0847" rx="7.54236" fill="#ED4C4E"/>
<rect x="0.879883" y="39.8417" width="55.3187" height="16.2288" rx="8.1144" transform="rotate(-45 0.879883 39.8417)" fill="#FFB106"/>
<rect x="47.7344" y="47.8324" width="43.5134" height="15.0847" rx="7.54236" transform="rotate(-180 47.7344 47.8324)" fill="#410603"/>
<rect x="65.7529" y="32.7479" width="15.0846" height="15.0846" rx="7.54232" transform="rotate(90 65.7529 32.7479)" fill="#410603"/>
<path d="M86.7529 40.475V37.6802L101.906 16.0253H86.7529V13.2115H105.651V16.0253L90.4983 37.6802H105.651V40.475H86.7529Z" fill="#410603"/>
<path d="M108.674 20.7783H111.621V32.4138C111.621 34.0489 112.166 35.4114 113.256 36.5015C114.359 37.5915 115.728 38.1365 117.363 38.1365C118.998 38.1365 120.367 37.5915 121.469 36.5015C122.572 35.4114 123.123 34.0489 123.123 32.4138V20.7783H126.07V32.4138C126.07 34.8474 125.24 36.8627 123.58 38.4597C121.932 40.0568 119.86 40.8553 117.363 40.8553C114.866 40.8553 112.793 40.0568 111.146 38.4597C109.498 36.8627 108.674 34.8474 108.674 32.4138V20.7783Z" fill="#410603"/>
<path d="M130.88 40.475V20.7783H133.846V23.9344C134.696 22.6415 135.836 21.6846 137.269 21.0635C138.701 20.4298 140.31 20.2523 142.098 20.5312L141.698 23.383C139.544 22.9394 137.693 23.288 136.147 24.4287C134.613 25.5568 133.846 27.1538 133.846 29.2198V40.475H130.88Z" fill="#410603"/>
<path d="M145.14 40.475V20.7783H148.105V40.475H145.14ZM145.14 17.6223V12.2038H148.105V17.6223H145.14Z" fill="#410603"/>
<path d="M171.89 40.475V16.0253H162.65V13.2115H184.153V16.0253H174.97V40.475H171.89Z" fill="#410603"/>
<path d="M182.118 30.6267C182.118 29.1944 182.378 27.8446 182.898 26.5771C183.43 25.2969 184.146 24.2069 185.046 23.307C185.946 22.4071 187.024 21.6973 188.278 21.1776C189.533 20.6453 190.87 20.3791 192.29 20.3791C193.786 20.3791 195.186 20.6706 196.492 21.2536C197.797 21.824 198.9 22.6035 199.8 23.5922C200.7 24.5681 201.384 25.7532 201.853 27.1474C202.322 28.529 202.493 29.9993 202.366 31.5583H185.16C185.312 33.4595 186.067 35.0502 187.423 36.3304C188.792 37.6105 190.503 38.2506 192.556 38.2506C194.064 38.2506 195.408 37.8767 196.587 37.1289C197.778 36.3684 198.678 35.3417 199.287 34.0489L201.853 35.0946C201.004 36.8437 199.755 38.2443 198.108 39.2963C196.473 40.3356 194.597 40.8553 192.48 40.8553C190.554 40.8553 188.798 40.4117 187.214 39.5244C185.629 38.6245 184.381 37.3951 183.468 35.8361C182.568 34.2644 182.118 32.5279 182.118 30.6267ZM185.236 29.1057H199.325C199.046 27.3312 198.26 25.8673 196.967 24.7139C195.687 23.5605 194.128 22.9838 192.29 22.9838C190.452 22.9838 188.887 23.5668 187.594 24.7329C186.301 25.899 185.515 27.3566 185.236 29.1057Z" fill="#410603"/>
<path d="M223.603 40.475V37.0148C222.729 38.2189 221.626 39.1632 220.295 39.8476C218.964 40.5194 217.494 40.8553 215.884 40.8553C214.021 40.8553 212.323 40.4117 210.789 39.5244C209.268 38.6245 208.077 37.3951 207.215 35.8361C206.353 34.2644 205.922 32.5279 205.922 30.6267C205.922 27.7115 206.872 25.2779 208.774 23.326C210.675 21.3614 213.045 20.3791 215.884 20.3791C217.494 20.3791 218.964 20.7213 220.295 21.4057C221.626 22.0775 222.729 23.0218 223.603 24.2386V20.7783H226.569V40.475H223.603ZM208.964 30.6267C208.964 32.7561 209.661 34.5432 211.055 35.9881C212.462 37.4204 214.205 38.1365 216.283 38.1365C218.362 38.1365 220.099 37.4204 221.493 35.9881C222.9 34.5432 223.603 32.7561 223.603 30.6267C223.603 28.4846 222.9 26.6975 221.493 25.2652C220.099 23.833 218.362 23.1168 216.283 23.1168C214.205 23.1168 212.462 23.833 211.055 25.2652C209.661 26.6975 208.964 28.4846 208.964 30.6267Z" fill="#410603"/>
<path d="M231.531 40.475V20.7783H234.497V23.5731C235.182 22.5845 236.044 21.805 237.083 21.2346C238.135 20.6643 239.282 20.3791 240.524 20.3791C242.045 20.3791 243.408 20.772 244.612 21.5578C245.829 22.3437 246.741 23.3957 247.35 24.7139C248.021 23.383 248.947 22.331 250.125 21.5578C251.304 20.772 252.66 20.3791 254.194 20.3791C256.526 20.3791 258.459 21.2093 259.993 22.8697C261.526 24.5174 262.293 26.5961 262.293 29.1057V40.475H259.327V29.1057C259.327 27.3946 258.808 25.9687 257.768 24.8279C256.729 23.6872 255.423 23.1168 253.852 23.1168C252.293 23.1168 250.994 23.6872 249.954 24.8279C248.915 25.9687 248.395 27.3946 248.395 29.1057V40.475H245.429V29.1057C245.429 27.3946 244.903 25.9687 243.851 24.8279C242.812 23.6872 241.506 23.1168 239.935 23.1168C238.376 23.1168 237.077 23.6872 236.037 24.8279C235.011 25.9687 234.497 27.3946 234.497 29.1057V40.475H231.531Z" fill="#410603"/>
<path d="M270.647 13.198C269.316 14.5288 268.665 16.1145 268.665 17.9834C268.665 19.8522 269.316 21.4662 270.647 22.7971C271.978 24.1279 273.592 24.7792 275.46 24.7792C277.329 24.7792 278.915 24.1279 280.246 22.7971C281.577 21.4662 282.256 19.8522 282.256 17.9834C282.256 16.1145 281.577 14.5288 280.246 13.198C278.915 11.8671 277.329 11.1876 275.46 11.1876C273.592 11.1876 271.978 11.8671 270.647 13.198ZM271.638 21.806C270.59 20.7583 270.052 19.4841 270.052 17.9834C270.052 16.4826 270.59 15.2084 271.638 14.1607C272.685 13.113 273.96 12.575 275.46 12.575C276.961 12.575 278.235 13.113 279.283 14.1607C280.331 15.2084 280.869 16.4826 280.869 17.9834C280.869 19.4841 280.331 20.7583 279.283 21.806C278.235 22.8537 276.961 23.3917 275.46 23.3917C273.96 23.3917 272.685 22.8537 271.638 21.806ZM278.179 16.7658C278.179 15.435 277.188 14.5005 275.828 14.5005H273.082V21.3247H274.384V19.0028H275.517L276.876 21.3247H278.349L276.876 18.7762C277.754 18.4081 278.179 17.7285 278.179 16.7658ZM275.517 15.6048C276.423 15.6048 276.876 15.973 276.876 16.7375C276.876 17.5303 276.423 17.9268 275.517 17.9268H274.384V15.6048H275.517Z" fill="#410603"/>
</svg>
